<?xml version="1.0" standalone="no"?>
<!DOCTYPE svg PUBLIC "-//W3C//DTD SVG 20010904//EN"
 "http://www.w3.org/TR/2001/REC-SVG-20010904/DTD/svg10.dtd">
<svg version="1.0" xmlns="http://www.w3.org/2000/svg"
 width="460.000000pt" height="460.000000pt" viewBox="0 0 460.000000 460.000000"
 preserveAspectRatio="xMidYMid meet">
<metadata>
Created by potrace 1.11, written by Peter Selinger 2001-2013
</metadata>
<g transform="translate(0.000000,460.000000) scale(0.100000,-0.100000)"
fill="#000000" stroke="none">
<path d="M2605 4528 c-10 -40 -22 -83 -26 -96 l-9 -23 -29 20 c-52 37 -194
100 -285 126 -100 28 -225 33 -381 14 -220 -27 -461 -143 -668 -322 l-58 -50
-107 -2 c-93 -2 -119 -6 -197 -35 -304 -110 -478 -258 -545 -463 -18 -57 -6
-55 28 5 77 136 269 257 517 328 88 25 101 25 50 -1 -76 -39 -111 -69 -162
-137 -104 -137 -149 -279 -140 -437 5 -88 29 -201 47 -219 4 -4 8 37 8 95 0
57 5 127 11 154 29 121 144 292 247 365 l49 35 -32 -40 c-44 -55 -100 -180
-120 -266 -21 -93 -8 -177 49 -316 41 -102 66 -137 46 -65 -18 65 -5 158 37
255 53 124 74 133 55 24 -13 -75 -2 -154 33 -222 32 -64 62 -77 41 -17 -23 63
-15 69 21 15 19 -28 47 -60 63 -72 16 -11 44 -50 62 -87 29 -60 92 -134 155
-185 11 -9 32 -30 47 -48 22 -26 23 -31 9 -31 -40 0 -135 79 -194 160 -27 38
-8 1 26 -48 36 -54 92 -95 166 -122 31 -12 79 -36 106 -54 49 -33 206 -96 275
-112 l35 -8 -41 -8 c-67 -14 -127 -91 -123 -158 0 -8 7 7 14 34 18 66 56 103
119 116 46 9 65 7 186 -24 92 -24 139 -32 151 -26 14 8 21 2 38 -33 18 -36 21
-38 21 -17 0 14 -7 35 -15 46 -14 20 -8 25 141 125 85 57 160 104 167 104 14
1 66 25 287 133 137 67 151 76 123 80 -18 2 -56 -1 -85 -6 -29 -4 -73 -8 -98
-8 -68 1 -60 27 30 95 59 44 81 68 102 111 24 47 53 177 42 189 -5 5 -9 -11
-23 -83 -18 -99 -47 -144 -131 -207 -52 -40 -77 -65 -82 -86 -13 -52 -195
-216 -362 -327 -81 -54 -155 -100 -165 -103 -24 -6 -379 82 -474 118 -95 37
-166 81 -222 139 l-40 42 40 -6 40 -6 -43 16 c-34 13 -51 28 -76 68 -52 80
-86 153 -122 256 -36 107 -37 103 41 145 32 17 43 20 30 8 -35 -31 -78 -93
-70 -101 4 -4 10 0 13 8 11 30 117 124 171 152 43 22 65 23 57 3 -3 -10 1 -15
12 -16 9 0 -4 -6 -29 -13 -104 -28 -158 -89 -162 -184 -2 -42 2 -55 23 -77 14
-15 34 -32 45 -37 16 -8 14 -5 -6 18 -45 49 -51 69 -38 117 19 71 37 96 89
122 61 31 180 36 218 9 30 -21 39 -11 14 14 -12 12 -41 24 -66 27 -25 4 -46
12 -46 17 0 15 66 4 145 -25 77 -28 105 -58 105 -114 0 -17 5 -35 10 -38 14
-8 13 -121 -1 -147 -8 -14 -8 -18 0 -14 18 11 33 86 26 127 -7 39 -6 40 37 58
72 32 153 32 163 1 11 -33 55 -80 97 -101 22 -11 42 -18 44 -16 3 2 -8 10 -25
16 -65 27 -102 94 -153 278 -21 72 -20 103 5 137 14 19 16 19 50 3 47 -23 52
-21 32 9 -14 22 -15 28 -4 35 21 13 36 11 81 -11 23 -11 48 -20 55 -20 15 0
17 -16 3 -25 -5 -3 -10 -22 -10 -41 0 -21 4 -33 10 -29 6 3 10 13 10 22 0 31
73 75 150 92 105 23 172 8 236 -51 49 -45 69 -93 60 -144 -10 -51 1 -41 20 20
17 53 17 55 -5 89 -25 40 -75 82 -126 103 -43 17 -47 44 -7 44 68 0 155 -50
137 -80 -4 -6 -1 -17 5 -25 6 -8 9 -19 5 -25 -4 -6 1 -20 11 -31 35 -39 25
-172 -21 -283 -6 -13 -5 -17 3 -12 15 9 53 112 61 166 6 42 9 47 60 73 59 29
137 37 159 15 17 -17 15 -112 -4 -183 -24 -94 -115 -234 -177 -274 -18 -12
-26 -21 -18 -21 24 0 116 102 156 175 21 37 44 93 51 124 15 61 18 163 7 175
-5 4 -8 96 -8 204 -1 189 -2 200 -29 282 -39 117 -67 168 -125 232 l-51 56 28
18 c60 39 141 109 134 116 -4 4 -44 -11 -87 -34 -78 -40 -79 -40 -54 -12 14
16 58 67 99 114 41 47 85 97 99 113 l25 27 -191 0 -191 0 -17 -72z m-371 -754
c18 -13 18 -14 -9 -24 -30 -11 -34 -8 -71 54 l-17 30 39 -24 c21 -13 48 -29
58 -36z m318 -23 l42 -38 -52 10 c-29 6 -51 16 -49 22 3 5 0 18 -5 28 -16 31
20 19 64 -22z m-130 12 c25 -22 23 -31 -6 -26 -13 3 -26 14 -29 24 -6 23 10
25 35 2z m-417 -43 c10 -11 13 -20 7 -20 -6 0 -16 9 -22 20 -6 11 -9 20 -7 20
2 0 12 -9 22 -20z m282 14 c-3 -3 -12 -4 -19 -1 -8 3 -5 6 6 6 11 1 17 -2 13
-5z m-424 -149 c16 -22 36 -56 44 -75 25 -54 27 -14 4 60 -11 35 -19 66 -17
67 10 10 46 -73 46 -105 0 -20 5 -55 10 -77 5 -22 7 -41 4 -44 -13 -13 -140
137 -189 224 -15 28 -35 61 -44 75 -24 38 107 -78 142 -125z m96 46 c0 -3 -4
-14 -7 -24 -6 -14 -14 -7 -44 38 l-36 55 44 -32 c24 -17 44 -34 43 -37z m385
50 c16 -17 14 -19 -30 -36 l-47 -18 -18 24 c-25 32 -24 37 9 42 56 8 69 7 86
-12z m144 -2 c12 -19 11 -20 -30 -17 -31 2 -44 8 -46 21 -5 26 59 24 76 -4z
m-1078 -114 c19 -38 36 -73 38 -77 5 -11 -86 -53 -95 -44 -5 4 -9 49 -10 99
-3 91 -3 92 11 47 18 -60 36 -104 41 -99 2 2 -5 29 -15 59 -11 30 -19 75 -19
100 1 41 2 42 9 15 4 -16 22 -61 40 -100z m-140 29 c0 -8 14 -47 30 -86 17
-38 30 -74 30 -79 0 -5 -13 -15 -29 -23 -27 -14 -30 -14 -36 2 -4 9 -9 62 -12
116 -5 74 -3 97 5 92 7 -4 12 -14 12 -22z m-38 -231 l-27 -23 -8 23 c-5 12 -5
48 -2 81 l7 58 29 -58 29 -59 -28 -22z m323 97 c3 -5 -3 -10 -14 -10 -12 0
-21 5 -21 10 0 6 6 10 14 10 8 0 18 -4 21 -10z m298 -91 l32 0 -39 -15 c-41
-15 -56 -12 -56 13 0 10 6 13 16 9 9 -3 30 -6 47 -7z m-593 -249 c0 -5 -4 -10
-9 -10 -6 0 -13 5 -16 10 -3 6 1 10 9 10 9 0 16 -4 16 -10z m0 -30 c15 -8 80
-118 80 -136 0 -10 -48 42 -79 85 -41 58 -41 73 -1 51z"/>
<path d="M2268 3663 c7 -3 16 -2 19 1 4 3 -2 6 -13 5 -11 0 -14 -3 -6 -6z"/>
<path d="M2444 3603 c-12 -2 -34 -16 -51 -31 -16 -15 -22 -21 -13 -14 49 37
110 -12 110 -88 0 -35 -38 -80 -68 -80 -27 0 -70 36 -75 63 l-4 22 -2 -23 c-1
-29 20 -70 52 -100 l25 -23 85 16 85 17 9 47 c10 52 3 99 -21 136 -25 38 -89
66 -132 58z m106 -39 c0 -3 -8 -35 -17 -70 -17 -64 -33 -84 -33 -41 0 32 30
117 41 117 5 0 9 -3 9 -6z m27 -164 c1 -11 -4 -20 -13 -20 -8 0 -14 5 -14 11
0 6 -9 8 -22 4 -20 -5 -21 -5 -5 5 14 9 22 9 33 -1 12 -10 13 -9 8 5 -3 9 -2
16 3 16 5 0 9 -9 10 -20z m-77 -20 c0 -13 -11 -13 -30 0 -12 8 -11 10 8 10 12
0 22 -4 22 -10z m-66 -8 c-5 -4 -12 -11 -15 -15 -3 -5 -9 -2 -12 5 -3 9 3 14
15 15 11 1 16 -1 12 -5z m103 2 c-3 -3 -12 -4 -19 -1 -8 3 -5 6 6 6 11 1 17
-2 13 -5z"/>
<path d="M2802 3394 c-46 -23 -52 -29 -52 -57 0 -18 -3 -50 -7 -71 l-6 -39 22
22 c12 12 29 20 37 17 8 -3 14 -1 14 4 0 6 -11 10 -25 10 -26 0 -29 8 -19 58
7 33 50 59 122 72 l37 8 -36 1 c-20 1 -57 -10 -87 -25z"/>
<path d="M1518 3334 c-35 -18 -35 -23 -3 -16 28 5 53 -11 65 -43 8 -18 10 -17
21 13 24 60 40 27 18 -37 -11 -32 -24 -40 -32 -18 -3 6 -6 2 -6 -10 -2 -42
-58 -56 -91 -23 -14 14 -20 16 -20 6 0 -21 38 -65 71 -82 28 -14 33 -13 88 11
l58 26 -9 56 c-10 65 -31 108 -57 123 -27 14 -71 12 -103 -6z m132 -144 c-8
-6 -11 -10 -7 -10 5 0 1 -7 -8 -16 -9 -9 -19 -13 -23 -10 -3 4 0 11 7 15 7 5
11 13 7 19 -3 6 2 12 11 14 24 6 31 -1 13 -12z m-60 -25 c-7 -9 -15 -13 -19
-10 -3 3 1 10 9 15 21 14 24 12 10 -5z m-26 -24 c4 -5 -3 -7 -14 -4 -23 6 -26
13 -6 13 8 0 17 -4 20 -9z"/>
<path d="M1154 3145 c-6 -13 39 -125 50 -125 3 0 -7 25 -20 55 -14 31 -23 62
-20 70 3 8 3 15 0 15 -2 0 -7 -7 -10 -15z"/>
<path d="M2208 3143 c7 -3 16 -2 19 1 4 3 -2 6 -13 5 -11 0 -14 -3 -6 -6z"/>
<path d="M1850 3065 c0 -3 7 -17 16 -30 25 -38 90 -29 82 11 -2 14 -14 19 -51
22 -26 2 -47 1 -47 -3z m76 -34 c-12 -12 -21 -13 -33 -5 -30 19 -25 30 13 26
33 -4 35 -6 20 -21z"/>
<path d="M2014 2889 c-60 -23 -69 -41 -52 -107 11 -44 73 -122 96 -122 7 0 -5
15 -25 33 -30 29 -36 40 -35 72 3 67 20 102 60 121 32 15 41 15 76 3 55 -19
109 -90 104 -136 -4 -37 7 -45 15 -12 7 27 -6 61 -40 105 -50 66 -107 79 -199
43z"/>
<path d="M1488 2883 c6 -2 18 -2 25 0 6 3 1 5 -13 5 -14 0 -19 -2 -12 -5z"/>
<path d="M2501 2764 c0 -16 6 -39 15 -50 8 -10 12 -12 8 -4 -4 8 -11 30 -15
50 -7 35 -7 35 -8 4z"/>
<path d="M2700 2781 c30 -4 69 -14 85 -23 61 -33 113 -108 140 -200 9 -32 20
-60 25 -63 13 -8 -29 117 -55 160 -51 88 -124 136 -202 134 l-48 -2 55 -6z"/>
<path d="M2587 2748 c-18 -18 -21 -23 -7 -12 14 12 34 26 45 32 11 6 14 12 7
12 -7 0 -27 -15 -45 -32z"/>
<path d="M2535 2636 c-22 -14 -62 -28 -90 -32 -52 -7 -58 -12 -135 -103 -81
-95 -95 -122 -114 -224 -17 -93 -17 -102 -1 -207 16 -95 16 -115 4 -157 -9
-32 -15 -42 -17 -28 -7 33 -90 253 -114 298 -12 23 -29 67 -39 97 -10 30 -18
49 -18 41 -1 -11 -4 -11 -18 0 -9 8 -14 10 -12 4 3 -5 26 -55 53 -110 46 -94
101 -235 131 -334 10 -32 11 -50 4 -63 -6 -11 -8 -22 -5 -25 9 -9 26 8 26 26
0 10 7 39 16 65 12 35 19 44 26 35 7 -10 8 -9 4 6 -3 11 -10 52 -16 90 -6 39
-16 91 -21 117 -10 43 2 144 28 231 2 10 40 63 84 117 72 90 83 99 121 105 24
4 69 20 100 36 67 34 88 36 88 11 0 -37 -75 -85 -146 -94 -25 -4 -67 -23 -107
-49 -84 -55 -81 -63 4 -10 55 33 74 40 134 44 120 8 161 -7 130 -49 -10 -15
-29 -19 -86 -21 -65 -2 -77 -5 -124 -37 -28 -20 -62 -48 -76 -64 l-24 -27 27
23 c50 44 150 50 232 13 33 -14 46 -26 46 -40 0 -25 -10 -26 -80 -5 -48 14
-56 14 -96 -1 -23 -9 -48 -23 -54 -31 -7 -7 -21 -14 -31 -14 -20 0 -49 -25
-49 -43 0 -6 6 -3 13 7 7 10 33 22 58 27 84 16 101 12 157 -37 77 -68 62 -105
-21 -49 -32 22 -43 25 -88 19 -49 -7 -52 -9 -71 -53 -22 -52 -89 -241 -120
-343 l-21 -66 -66 33 c-36 18 -75 35 -86 39 -16 4 -28 27 -47 89 -14 45 -29
94 -32 109 -3 15 -24 47 -45 72 -21 25 -41 51 -43 57 -2 7 -28 16 -57 19 l-52
5 -45 105 c-25 58 -51 128 -59 155 -9 32 -14 41 -14 25 -1 -14 22 -81 49 -149
28 -68 50 -126 50 -128 0 -3 -11 -2 -25 1 -17 4 -25 2 -25 -6 0 -9 23 -14 78
-16 l77 -4 42 -46 c23 -26 48 -65 54 -87 6 -22 22 -73 35 -114 l23 -73 -29 6
c-42 8 -37 0 8 -14 20 -7 75 -28 120 -48 l84 -35 -6 -46 -5 -46 15 50 c8 28
21 75 30 105 26 90 126 354 139 369 26 27 77 29 124 4 50 -26 79 -29 87 -9 8
20 -2 34 -59 86 -39 35 -54 43 -85 42 l-37 0 33 16 c28 13 40 14 77 4 25 -7
59 -12 76 -12 27 0 30 3 27 28 -2 22 -14 32 -58 54 -34 17 -72 27 -100 28 -42
0 -43 1 -27 17 13 13 36 18 89 19 65 2 75 5 95 29 31 35 17 61 -37 70 l-40 7
36 33 c69 65 21 112 -61 61z"/>
<path d="M2122 2467 c14 -12 36 -33 47 -47 12 -14 20 -19 21 -11 0 17 -64 81
-81 81 -8 -1 -2 -10 13 -23z"/>
<path d="M2980 2425 c0 -5 5 -17 10 -25 5 -8 10 -10 10 -5 0 6 -5 17 -10 25
-5 8 -10 11 -10 5z"/>
<path d="M3005 2364 c3 -12 12 -41 20 -65 12 -38 14 -39 8 -9 -3 19 -12 49
-19 65 -8 17 -11 21 -9 9z"/>
<path d="M3040 2247 c0 -3 13 -61 30 -128 26 -107 72 -359 83 -459 3 -19 3 -1
1 41 -2 41 -16 136 -30 210 -33 175 -84 378 -84 336z"/>
<path d="M2813 2127 c-70 -127 -227 -428 -296 -567 -60 -121 -112 -187 -175
-220 -47 -25 -63 -25 -115 1 -78 40 -178 125 -290 247 -27 28 -56 52 -65 52
-48 1 -219 20 -234 25 -24 10 -57 66 -68 117 l-9 43 3 -41 c5 -53 33 -111 60
-126 11 -7 75 -17 140 -22 l119 -11 28 -105 c37 -142 43 -157 78 -175 36 -18
102 -20 119 -3 9 9 12 -7 12 -74 0 -79 -2 -89 -26 -118 -15 -17 -24 -34 -20
-37 3 -4 6 0 6 8 0 8 9 -1 21 -20 11 -19 39 -53 61 -75 l41 -41 -34 43 c-66
84 -71 96 -55 126 l14 28 7 -41 c4 -23 11 -43 16 -47 12 -7 12 -9 -7 79 -8 42
-13 95 -10 119 3 24 5 51 5 61 1 15 8 13 54 -13 93 -52 173 -33 247 61 21 27
113 195 202 372 95 187 179 340 201 365 39 46 48 64 20 41 -15 -13 -15 -12 -4
9 7 13 11 26 9 28 -3 2 -27 -38 -55 -89z m-713 -721 l35 -26 -25 -21 c-20 -16
-34 -19 -70 -14 -25 3 -53 13 -62 23 -10 9 -28 53 -41 97 -45 152 -48 149 45
54 46 -48 99 -98 118 -113z"/>
<path d="M1572 2082 c4 -28 0 -44 -19 -65 -25 -31 -27 -41 -12 -72 7 -16 8
-13 4 11 -4 22 0 38 15 57 12 15 26 25 31 22 5 -4 9 -2 9 4 0 5 -4 13 -10 16
-5 3 -10 17 -10 30 0 24 1 25 79 22 44 -2 85 -8 93 -14 7 -6 31 -18 53 -27 33
-13 37 -13 21 -1 -11 8 -24 15 -29 15 -5 0 -21 8 -35 19 -21 14 -46 18 -111
19 l-83 1 4 -37z"/>
<path d="M1632 1985 c0 -16 2 -22 5 -12 2 9 2 23 0 30 -3 6 -5 -1 -5 -18z"/>
<path d="M1553 1875 c0 -27 2 -38 4 -22 2 15 2 37 0 50 -2 12 -4 0 -4 -28z"/>
<path d="M3164 1505 c4 -164 -9 -338 -43 -554 -17 -107 -30 -202 -30 -210 5
-61 76 448 83 589 3 63 2 153 -3 200 l-10 85 3 -110z"/>
<path d="M2427 1190 c-4 -19 -3 -38 3 -44 15 -15 23 19 13 51 l-10 28 -6 -35z"/>
<path d="M2880 1016 c0 -25 -21 -90 -46 -144 -9 -19 -14 -36 -11 -38 2 -2 17
24 32 58 26 58 45 148 31 148 -3 0 -6 -11 -6 -24z"/>
<path d="M1947 923 c-117 -204 -251 -743 -219 -883 9 -41 10 -35 11 61 2 210
102 595 207 796 29 56 52 103 50 103 -2 0 -24 -35 -49 -77z"/>
<path d="M2255 930 c27 -27 51 -50 54 -50 3 0 -17 23 -44 50 -27 28 -51 50
-54 50 -3 0 17 -22 44 -50z"/>
<path d="M2020 865 c13 -14 26 -25 28 -25 3 0 -5 11 -18 25 -13 14 -26 25 -28
25 -3 0 5 -11 18 -25z"/>
<path d="M2350 850 c47 -41 125 -78 180 -85 37 -4 32 -2 -23 13 -39 11 -94 36
-130 60 -46 32 -53 34 -27 12z"/>
<path d="M2075 800 c10 -11 20 -20 23 -20 3 0 -3 9 -13 20 -10 11 -20 20 -23
20 -3 0 3 -9 13 -20z"/>
<path d="M2598 753 c12 -2 32 -2 45 0 12 2 2 4 -23 4 -25 0 -35 -2 -22 -4z"/>
<path d="M2707 748 c-7 -4 38 -7 98 -6 119 1 116 5 -8 10 -43 2 -84 0 -90 -4z"/>
<path d="M2968 753 c12 -2 30 -2 40 0 9 3 -1 5 -23 4 -22 0 -30 -2 -17 -4z"/>
<path d="M3048 743 c6 -2 18 -2 25 0 6 3 1 5 -13 5 -14 0 -19 -2 -12 -5z"/>
<path d="M2127 730 c7 -9 14 -47 16 -85 l3 -70 2 71 c2 58 -1 74 -15 85 -16
12 -17 12 -6 -1z"/>
<path d="M3092 575 c-3 -69 -11 -88 -32 -75 -8 6 -22 10 -30 9 -8 0 0 -6 19
-14 l34 -15 -7 -62 c-9 -74 -65 -264 -106 -356 -17 -37 -23 -58 -15 -48 22 29
71 152 100 251 28 97 49 255 42 325 -3 40 -4 39 -5 -15z"/>
<path d="M2152 540 c0 -14 2 -19 5 -12 2 6 2 18 0 25 -3 6 -5 1 -5 -13z"/>
<path d="M2453 507 c-21 -23 -60 -70 -86 -104 -36 -47 -51 -60 -67 -56 -37 10
-108 82 -123 126 -9 23 -16 34 -16 24 -2 -48 68 -132 128 -155 18 -6 15 -13
-31 -87 -54 -85 -132 -244 -124 -252 2 -3 22 34 44 81 70 148 255 411 309 440
15 7 21 16 16 19 -6 4 -28 -12 -50 -36z"/>
<path d="M2608 533 c50 -2 134 -2 185 0 50 1 9 3 -93 3 -102 0 -143 -2 -92 -3z"/>
<path d="M2913 523 c9 -2 25 -2 35 0 9 3 1 5 -18 5 -19 0 -27 -2 -17 -5z"/>
<path d="M2978 513 c6 -2 18 -2 25 0 6 3 1 5 -13 5 -14 0 -19 -2 -12 -5z"/>
</g>
</svg>
